<mxfile host="app.diagrams.net" modified="2021-02-14T03:22:29.209Z" agent="5.0 (Macintosh; Intel Mac OS X 10_15_7) AppleWebKit/537.36 (KHTML, like Gecko) Chrome/87.0.4280.141 Safari/537.36" etag="zigWV8usb213xOKbhTKh" version="13.10.4" type="github">
  <diagram id="dO0vtySp463CFIR5enba" name="Page-1">
    <mxGraphModel dx="1549" dy="900" grid="1" gridSize="10" guides="1" tooltips="1" connect="1" arrows="1" fold="1" page="1" pageScale="1" pageWidth="850" pageHeight="1100" math="0" shadow="0">
      <root>
        <mxCell id="0" />
        <mxCell id="1" parent="0" />
        <mxCell id="j-aTXEHQPf7atkRtbaUO-4" value="" style="edgeStyle=orthogonalEdgeStyle;rounded=0;orthogonalLoop=1;jettySize=auto;html=1;" edge="1" parent="1" source="j-aTXEHQPf7atkRtbaUO-1" target="j-aTXEHQPf7atkRtbaUO-3">
          <mxGeometry relative="1" as="geometry" />
        </mxCell>
        <mxCell id="j-aTXEHQPf7atkRtbaUO-1" value="" style="shape=parallelogram;perimeter=parallelogramPerimeter;whiteSpace=wrap;html=1;fixedSize=1;" vertex="1" parent="1">
          <mxGeometry x="110" y="170" width="120" height="60" as="geometry" />
        </mxCell>
        <mxCell id="j-aTXEHQPf7atkRtbaUO-8" value="" style="edgeStyle=orthogonalEdgeStyle;rounded=0;orthogonalLoop=1;jettySize=auto;html=1;" edge="1" parent="1" source="j-aTXEHQPf7atkRtbaUO-2" target="j-aTXEHQPf7atkRtbaUO-7">
          <mxGeometry relative="1" as="geometry" />
        </mxCell>
        <mxCell id="j-aTXEHQPf7atkRtbaUO-2" value="" style="shape=tape;whiteSpace=wrap;html=1;" vertex="1" parent="1">
          <mxGeometry x="170" y="360" width="120" height="100" as="geometry" />
        </mxCell>
        <mxCell id="j-aTXEHQPf7atkRtbaUO-6" value="" style="edgeStyle=orthogonalEdgeStyle;rounded=0;orthogonalLoop=1;jettySize=auto;html=1;" edge="1" parent="1" source="j-aTXEHQPf7atkRtbaUO-3" target="j-aTXEHQPf7atkRtbaUO-5">
          <mxGeometry relative="1" as="geometry" />
        </mxCell>
        <mxCell id="j-aTXEHQPf7atkRtbaUO-3" value="" style="shape=tape;whiteSpace=wrap;html=1;" vertex="1" parent="1">
          <mxGeometry x="110" y="290" width="120" height="100" as="geometry" />
        </mxCell>
        <mxCell id="j-aTXEHQPf7atkRtbaUO-5" value="" style="rhombus;whiteSpace=wrap;html=1;" vertex="1" parent="1">
          <mxGeometry x="330" y="300" width="80" height="80" as="geometry" />
        </mxCell>
        <mxCell id="j-aTXEHQPf7atkRtbaUO-7" value="" style="triangle;whiteSpace=wrap;html=1;" vertex="1" parent="1">
          <mxGeometry x="200" y="550" width="60" height="80" as="geometry" />
        </mxCell>
      </root>
    </mxGraphModel>
  </diagram>
</mxfile>
